# xmcd
#
# Track frame offsets: 
#        150
#        27414
#        50123
#        71142
#        86972
#        107677
#        125753
#        143211
#        156415
#        169256
#        194837
#        196440
#        212516
#        227955
#
# Disc length: 3148 seconds
#
# Revision: 0
# Processed by: cddbd v1.5PL3 Copyright (c) Steve Scherf et al.
# Submitted via: ExactAudioCopy v0.90b4
#
DISCID=e30c4a0e
DTITLE=Bebeto Alves - Blackbagualnegovéio
DYEAR=2003
DGENRE=Gauchesca
TTITLE0=O Trânsito
TTITLE1=Paint It Black
TTITLE2=Por La Frontera
TTITLE3=Nego Véio
TTITLE4=O Fim Do Dia
TTITLE5=Nem Aqui Nem Em Lugar Nenhum
TTITLE6=Solaris
TTITLE7=Canos
TTITLE8=Manhãs
TTITLE9=Pôr Do Sol
TTITLE10=Epílogo
TTITLE11=Don't
TTITLE12=Noite Azul
TTITLE13=Blackbagualnegovéio
EXTD=
EXTT0=
EXTT1=
EXTT2=
EXTT3=
EXTT4=
EXTT5=
EXTT6=
EXTT7=
EXTT8=
EXTT9=
EXTT10=
EXTT11=
EXTT12=
EXTT13=
PLAYORDER=
